<svg width="40" height="40" viewBox="0 0 40 40" fill="none" xmlns="http://www.w3.org/2000/svg">
<path opacity="0.319978" d="M24.5902 37.9618C24.5902 39.087 25.5032 40 26.6285 40C27.7537 40 28.6667 39.087 28.6667 37.9618V34.6709H24.5945V37.9618H24.5902Z" fill="#815DFF"/>
<path opacity="0.319978" d="M24.5902 2.03822V5.32909H28.6624V2.03822C28.6624 0.912951 27.7495 0 26.6242 0C25.4989 0 24.5902 0.912951 24.5902 2.03822Z" fill="#815DFF"/>
<path opacity="0.319978" d="M17.9618 2.03822V5.32909H22.0382V2.03822C22.0382 0.912951 21.1253 0 20 0C18.8747 0 17.9618 0.912951 17.9618 2.03822Z" fill="#815DFF"/>
<path opacity="0.319978" d="M17.9618 37.9618C17.9618 39.087 18.8747 40 20 40C21.1253 40 22.0382 39.087 22.0382 37.9618V34.6709H17.9618V37.9618Z" fill="#815DFF"/>
<path opacity="0.319978" d="M11.3376 2.03822V5.32909H15.4098V2.03822C15.4098 0.912951 14.4968 0 13.3716 0C12.2463 0 11.3376 0.912951 11.3376 2.03822Z" fill="#815DFF"/>
<path opacity="0.319978" d="M11.3376 37.9618C11.3376 39.087 12.2505 40 13.3758 40C14.5011 40 15.414 39.087 15.414 37.9618V34.6709H11.3376V37.9618Z" fill="#815DFF"/>
<path opacity="0.319978" d="M0 26.6242C0 27.7495 0.912951 28.6624 2.03822 28.6624H5.32909V24.5902H2.03822C0.912951 24.5902 0 25.4989 0 26.6242Z" fill="#815DFF"/>
<path opacity="0.319978" d="M37.9618 24.5902H34.6709V28.6624H37.9618C39.087 28.6624 40 27.7495 40 26.6242C40 25.4989 39.087 24.5902 37.9618 24.5902Z" fill="#815DFF"/>
<path opacity="0.319978" d="M0 20C0 21.1253 0.912951 22.0382 2.03822 22.0382H5.32909V17.9618H2.03822C0.912951 17.9618 0 18.8747 0 20Z" fill="#815DFF"/>
<path opacity="0.319978" d="M37.9618 17.9618H34.6709V22.0382H37.9618C39.087 22.0382 40 21.1253 40 20C40 18.8747 39.087 17.9618 37.9618 17.9618Z" fill="#815DFF"/>
<path opacity="0.319978" d="M0 13.3758C0 14.5011 0.912951 15.414 2.03822 15.414H5.32909V11.3376H2.03822C0.912951 11.3376 0 12.2505 0 13.3758Z" fill="#815DFF"/>
<path opacity="0.319978" d="M37.9618 11.3376H34.6709V15.4098H37.9618C39.087 15.4098 40 14.4968 40 13.3716C40 12.2463 39.087 11.3376 37.9618 11.3376Z" fill="#815DFF"/>
<path opacity="0.322266" d="M7.28662 30.7083C7.28662 31.8862 8.24261 32.8422 9.42052 32.8422H30.7083C31.8862 32.8422 32.8422 31.8862 32.8422 30.7083V9.42052C32.8422 8.24261 31.8862 7.28662 30.7083 7.28662H9.42052C8.24261 7.28662 7.28662 8.24261 7.28662 9.42052V30.7083Z" fill="#815DFF"/>
<path opacity="0.479185" d="M11.62 27.0986C11.62 27.8771 12.2517 28.5089 13.0302 28.5089H27.0986C27.8771 28.5089 28.5089 27.8771 28.5089 27.0986V13.0302C28.5089 12.2517 27.8771 11.62 27.0986 11.62H13.0302C12.2517 11.62 11.62 12.2517 11.62 13.0302V27.0986Z" fill="#815DFF"/>
<path d="M14.9533 24.1611C14.9533 24.6242 15.3291 25 15.7922 25H24.1611C24.6242 25 25 24.6242 25 24.1611V15.7922C25 15.3291 24.6242 14.9533 24.1611 14.9533H15.7922C15.3291 14.9533 14.9533 15.3291 14.9533 15.7922V24.1611Z" fill="#815DFF"/>
</svg>
