<svg width="21" height="35" viewBox="0 0 21 35" fill="none" xmlns="http://www.w3.org/2000/svg">
<path opacity="0.324219" d="M11.2109 21.2333C11.2109 21.1043 10.9397 21 10.6055 21C10.2712 21 10 21.1043 10 21.2333V34.7667C10 34.8957 10.2712 35 10.6055 35C10.9397 35 11.2109 34.8957 11.2109 34.7667V21.2333Z" fill="#815DFF"/>
<path opacity="0.319141" d="M10.5 21C16.299 21 21 16.299 21 10.5C21 4.70101 16.299 0 10.5 0C4.70101 0 0 4.70101 0 10.5C0 16.299 4.70101 21 10.5 21Z" fill="#815DFF"/>
<path opacity="0.474665" d="M10.5 18.0833C14.6881 18.0833 18.0833 14.6881 18.0833 10.5C18.0833 6.31183 14.6881 2.91666 10.5 2.91666C6.31183 2.91666 2.91666 6.31183 2.91666 10.5C2.91666 14.6881 6.31183 18.0833 10.5 18.0833Z" fill="#815DFF"/>
<path d="M10.5 15.1667C13.0773 15.1667 15.1667 13.0773 15.1667 10.5C15.1667 7.92268 13.0773 5.83334 10.5 5.83334C7.92268 5.83334 5.83334 7.92268 5.83334 10.5C5.83334 13.0773 7.92268 15.1667 10.5 15.1667Z" fill="#815DFF"/>
</svg>
