<svg width="36" height="35" viewBox="0 0 36 35" fill="none" xmlns="http://www.w3.org/2000/svg">
<g opacity="0.32327">
<path d="M14.3196 13.8387C14.1004 12.9304 13.9837 11.9828 13.9837 11.0083C13.9837 7.58304 15.4185 4.48654 17.7185 2.28818C15.8599 0.854187 13.5321 0 11.0083 0C4.93835 0 0 4.93835 0 11.0083C0 15.7983 3.07562 19.8828 7.35535 21.3926C8.38367 17.9302 10.9808 15.1361 14.3196 13.8387Z" fill="#815DFF"/>
<path d="M36 11.0083C36 5.52118 31.536 1.05716 26.0489 1.05716C20.562 1.05716 16.098 5.52118 16.098 11.0083C16.098 11.7812 16.1865 12.5335 16.354 13.2561C17.0588 13.1226 17.7855 13.0518 18.5285 13.0518C23.4322 13.0518 27.6375 16.0963 29.3552 20.3939C33.2219 19.0278 36 15.3366 36 11.0083Z" fill="#815DFF"/>
<path d="M18.5287 15.1661C13.2687 15.1661 8.98926 19.4453 8.98926 24.7052C8.98926 29.9655 13.2687 34.2447 18.5287 34.2447C23.7887 34.2447 28.0678 29.9655 28.0678 24.7052C28.0678 19.4455 23.7884 15.1661 18.5287 15.1661V15.1661Z" fill="#815DFF"/>
</g>
<g opacity="0.469922">
<path d="M13.3419 12.9946C13.1836 12.3386 13.0993 11.6542 13.0993 10.9504C13.0993 8.47664 14.1356 6.24028 15.7967 4.65257C14.4543 3.61691 12.7732 3 10.9504 3C6.56659 3 3 6.56659 3 10.9504C3 14.4099 5.22128 17.3598 8.31219 18.4502C9.05487 15.9496 10.9306 13.9317 13.3419 12.9946Z" fill="#815DFF"/>
<path d="M33 10.9504C33 6.9875 29.776 3.76349 25.8131 3.76349C21.8504 3.76349 18.6263 6.9875 18.6263 10.9504C18.6263 11.5086 18.6902 12.0519 18.8112 12.5738C19.3202 12.4774 19.8451 12.4263 20.3817 12.4263C23.9233 12.4263 26.9604 14.6251 28.201 17.7289C30.9936 16.7423 33 14.0764 33 10.9504Z" fill="#815DFF"/>
<path d="M18.3818 17.9533C14.583 17.9533 11.4922 21.0438 11.4922 24.8427C11.4922 28.6417 14.583 31.7323 18.3818 31.7323C22.1807 31.7323 25.2712 28.6417 25.2712 24.8427C25.2712 21.044 22.1805 17.9533 18.3818 17.9533V17.9533Z" fill="#815DFF"/>
</g>
<path d="M12.3643 12.1505C12.2668 11.7468 12.215 11.3257 12.215 10.8926C12.215 9.37024 12.8527 7.99402 13.8749 7.01697C13.0488 6.37964 12.0143 6 10.8926 6C8.19482 6 6 8.19482 6 10.8926C6 13.0215 7.36694 14.8368 9.26904 15.5078C9.72607 13.969 10.8804 12.7272 12.3643 12.1505Z" fill="#815DFF"/>
<path d="M30 10.8926C30 8.45386 28.016 6.46985 25.5773 6.46985C23.1387 6.46985 21.1547 8.45386 21.1547 10.8926C21.1547 11.2361 21.194 11.5704 21.2684 11.8916C21.5817 11.8323 21.9047 11.8008 22.2349 11.8008C24.4143 11.8008 26.2833 13.1539 27.0468 15.064C28.7653 14.4568 30 12.8163 30 10.8926Z" fill="#815DFF"/>
<path d="M18.235 20.7405C15.8972 20.7405 13.9952 22.6423 13.9952 24.9801C13.9952 27.318 15.8972 29.2198 18.235 29.2198C20.5728 29.2198 22.4746 27.318 22.4746 24.9801C22.4746 22.6425 20.5726 20.7405 18.235 20.7405V20.7405Z" fill="#815DFF"/>
</svg>
