<svg width="28" height="36" viewBox="0 0 28 36" fill="none" xmlns="http://www.w3.org/2000/svg">
<g opacity="0.32">
<path d="M13.7829 17.6064C17.7854 17.6064 21.0305 13.6651 21.0305 8.80323C21.0305 3.94128 19.9651 0 13.7829 0C7.60063 0 6.53503 3.94128 6.53503 8.80323C6.53503 13.6651 9.78007 17.6064 13.7829 17.6064Z" fill="#815DFF"/>
<path d="M0.0989997 31.3954C0.0929997 30.4225 0.0869997 31.1213 0.0989997 31.3954V31.3954Z" fill="#815DFF"/>
<path d="M27.4716 31.51C27.4906 31.3593 27.4781 30.4645 27.4716 31.51V31.51Z" fill="#815DFF"/>
<path d="M27.3628 30.4104C27.2285 21.941 26.1224 19.5276 17.658 18C17.658 18 16.4665 19.5183 13.6894 19.5183C10.9122 19.5183 9.72051 18 9.72051 18C1.34846 19.511 0.175063 21.8885 0.0207771 30.1353C0.00812571 30.8087 0.00226286 30.8441 0 30.7659C0.000514286 30.9124 0.00113143 31.1833 0.00113143 31.6557C0.00113143 31.6557 2.01631 35.7182 13.6894 35.7182C25.3622 35.7182 27.3776 31.6557 27.3776 31.6557C27.3776 31.3522 27.3778 31.1411 27.3781 30.9975C27.3758 31.0459 27.3713 30.9522 27.3628 30.4104Z" fill="#815DFF"/>
</g>
<g opacity="0.48">
<path d="M13.9543 17.7157C16.8451 17.7157 19.1887 14.8692 19.1887 11.3579C19.1887 7.84648 18.4192 5 13.9543 5C9.48936 5 8.71976 7.84648 8.71976 11.3579C8.71976 14.8692 11.0634 17.7157 13.9543 17.7157Z" fill="#815DFF"/>
<path d="M4.07343 27.8134C4.06743 26.8404 4.06143 27.5392 4.07343 27.8134V27.8134Z" fill="#815DFF"/>
<path d="M23.8406 27.8961C23.8596 27.7454 23.8471 26.8506 23.8406 27.8961V27.8961Z" fill="#815DFF"/>
<path d="M23.8294 27.1666C23.7325 21.0498 22.9336 19.3068 16.8204 18.2036C16.8204 18.2036 15.9599 19.3001 13.9542 19.3001C11.9485 19.3001 11.0878 18.2036 11.0878 18.2036C5.04133 19.2948 4.19388 21.0119 4.08245 26.9679C4.07331 27.4543 4.06908 27.4798 4.06744 27.4234C4.06782 27.5292 4.06826 27.7248 4.06826 28.066C4.06826 28.066 5.52367 31 13.9542 31C22.3846 31 23.8401 28.066 23.8401 28.066C23.8401 27.8468 23.8403 27.6944 23.8405 27.5907C23.8389 27.6256 23.8356 27.5579 23.8294 27.1666Z" fill="#815DFF"/>
</g>
</svg>
