<svg width="30" height="36" viewBox="0 0 30 36" fill="none" xmlns="http://www.w3.org/2000/svg">
<path opacity="0.317746" d="M25.3914 29.178C19.4316 35.2009 9.86221 35.4007 3.66081 29.7922H5.65228V27.6464H1.46432H1.41307H0V29.0966V29.1262V33.3585H2.12327V31.2794C5.53514 34.424 9.86953 36 14.2039 36C18.8019 36 23.3926 34.2316 26.8923 30.6949L27.6464 29.9327L26.1455 28.4159L25.3914 29.178Z" fill="#815DFF"/>
<path opacity="0.319141" d="M14.0625 28.125C19.965 28.125 24.75 23.34 24.75 17.4375C24.75 11.535 19.965 6.75 14.0625 6.75C8.15996 6.75 3.375 11.535 3.375 17.4375C3.375 23.34 8.15996 28.125 14.0625 28.125Z" fill="#815DFF"/>
<path opacity="0.474665" d="M14.0625 25.1562C18.3254 25.1562 21.7812 21.7004 21.7812 17.4375C21.7812 13.1746 18.3254 9.71875 14.0625 9.71875C9.79955 9.71875 6.34375 13.1746 6.34375 17.4375C6.34375 21.7004 9.79955 25.1562 14.0625 25.1562Z" fill="#815DFF"/>
<path d="M14.0625 22.1875C16.6859 22.1875 18.8125 20.0609 18.8125 17.4375C18.8125 14.8141 16.6859 12.6875 14.0625 12.6875C11.4391 12.6875 9.3125 14.8141 9.3125 17.4375C9.3125 20.0609 11.4391 22.1875 14.0625 22.1875Z" fill="#815DFF"/>
<path opacity="0.317746" d="M26.3114 2.64382V4.72481C22.8995 1.57741 18.5651 0 14.2308 0C9.63278 0 5.04213 1.76995 1.5424 5.30986L0.795593 6.06524L2.29652 7.5834L3.05065 6.82062C9.01044 0.792406 18.5798 0.592453 24.7812 6.20595H22.7897V8.35359H26.9777H27.0289H28.442V6.90208V6.87246V2.64382H26.3114Z" fill="#815DFF"/>
</svg>
