<svg width="20" height="20" viewBox="0 0 20 20" fill="none" xmlns="http://www.w3.org/2000/svg">
<rect width="20" height="20" rx="1" fill="#027AC1"/>
<path fill-rule="evenodd" clip-rule="evenodd" d="M7.09191 5C6.43178 5 6 5.40278 6 5.93245C6 6.45058 6.41929 6.86559 7.06629 6.86559H7.07918C7.7521 6.86559 8.17059 6.45066 8.17059 5.93245C8.15791 5.40278 7.7521 5 7.09191 5ZM15 9.90479V13H13.071V10.1121C13.071 9.38663 12.792 8.89152 12.0938 8.89152C11.5608 8.89152 11.2436 9.22519 11.104 9.54795C11.0531 9.66334 11.04 9.82394 11.04 9.98546V13H9.11039C9.11039 13 9.13638 8.10883 9.11039 7.60207H11.0398V8.36721C11.038 8.3699 11.0359 8.3727 11.0338 8.37548L11.0338 8.3755C11.0314 8.37861 11.0291 8.38172 11.0272 8.38465H11.0398V8.36721C11.2962 7.99993 11.754 7.47526 12.7787 7.47526C14.0483 7.47524 15 8.24676 15 9.90479ZM8.04351 13H6.1146V7.60207H8.04351V13Z" fill="white"/>
</svg>
