<svg width="225" height="49" viewBox="0 0 225 49" fill="none" xmlns="http://www.w3.org/2000/svg">
<path d="M46.6 27.24C44.96 27.24 43.5933 26.6933 42.5 25.6C41.42 24.5067 40.88 23.14 40.88 21.5C40.88 19.86 41.42 18.4933 42.5 17.4C43.5933 16.3067 44.9667 15.76 46.62 15.76C48.0067 15.76 49.2133 16.16 50.24 16.96C51.28 17.7467 51.9 18.82 52.1 20.18H49.16C49 19.6067 48.6867 19.1667 48.22 18.86C47.7667 18.5533 47.2333 18.4 46.62 18.4C45.7533 18.4 45.06 18.6867 44.54 19.26C44.02 19.8333 43.7667 20.58 43.78 21.5C43.7667 22.42 44.02 23.1667 44.54 23.74C45.0733 24.3133 45.76 24.6 46.6 24.6C47.2133 24.6 47.7533 24.4467 48.22 24.14C48.6867 23.8333 49 23.3867 49.16 22.8H52.1C51.8867 24.2 51.26 25.2933 50.22 26.08C49.1933 26.8533 47.9867 27.24 46.6 27.24ZM60.2134 15.76C60.4001 15.76 60.6134 15.7733 60.8534 15.8V18.74C60.5601 18.7133 60.3268 18.7 60.1534 18.7C59.1401 18.7 58.3201 18.9667 57.6934 19.5C57.0801 20.02 56.7734 20.8867 56.7734 22.1V27H53.9134V16H56.7734V17.92C57.4534 16.48 58.6001 15.76 60.2134 15.76ZM70.2095 16H73.2695L66.1095 32H63.0695L65.9495 25.54L61.7095 16H64.7495L67.4695 22.44L70.2095 16ZM81.2714 15.76C82.6981 15.76 83.8914 16.3 84.8514 17.38C85.8114 18.4467 86.2914 19.82 86.2914 21.5C86.2914 23.18 85.8114 24.56 84.8514 25.64C83.9047 26.7067 82.7114 27.24 81.2714 27.24C79.8181 27.24 78.6581 26.6667 77.7914 25.52V32H74.9314V16H77.7914V17.54C78.6447 16.3533 79.8047 15.76 81.2714 15.76ZM80.6114 24.52C81.4114 24.52 82.0714 24.24 82.5914 23.68C83.1247 23.12 83.3914 22.3933 83.3914 21.5C83.3914 20.6067 83.1314 19.88 82.6114 19.32C82.0914 18.76 81.4247 18.48 80.6114 18.48C79.7981 18.48 79.1247 18.76 78.5914 19.32C78.0581 19.88 77.7914 20.6067 77.7914 21.5C77.7914 22.3933 78.0581 23.12 78.5914 23.68C79.1247 24.24 79.7981 24.52 80.6114 24.52ZM96.4684 24.04L96.9484 26.36C96.6151 26.5867 96.1351 26.7933 95.5084 26.98C94.8951 27.1533 94.2818 27.24 93.6684 27.24C92.4818 27.24 91.4951 26.8667 90.7084 26.12C89.9351 25.3733 89.5484 24.2533 89.5484 22.76V18.7H87.5884V16H89.5484V13.62L92.4084 13V16H96.4884V18.7H92.4084V22.6C92.4084 23.92 92.9951 24.58 94.1684 24.58C94.6884 24.58 95.4551 24.4 96.4684 24.04ZM99.6494 17.4C100.756 16.3067 102.109 15.76 103.709 15.76C105.309 15.76 106.663 16.3067 107.769 17.4C108.889 18.4933 109.449 19.86 109.449 21.5C109.449 23.1533 108.896 24.5267 107.789 25.62C106.696 26.7 105.336 27.24 103.709 27.24C102.096 27.24 100.736 26.6933 99.6294 25.6C98.536 24.5067 97.9894 23.14 97.9894 21.5C97.9894 19.86 98.5427 18.4933 99.6494 17.4ZM105.729 19.32C105.196 18.76 104.523 18.48 103.709 18.48C102.896 18.48 102.216 18.76 101.669 19.32C101.136 19.88 100.869 20.6067 100.869 21.5C100.869 22.3933 101.136 23.12 101.669 23.68C102.216 24.24 102.896 24.52 103.709 24.52C104.523 24.52 105.196 24.24 105.729 23.68C106.276 23.12 106.549 22.3933 106.549 21.5C106.549 20.6067 106.276 19.88 105.729 19.32ZM117.733 15.76C118.973 15.76 119.946 16.1467 120.653 16.92C121.359 17.6933 121.713 18.7533 121.713 20.1V27H118.853V20.72C118.853 19.9733 118.693 19.4133 118.373 19.04C118.053 18.6667 117.526 18.48 116.793 18.48C115.139 18.48 114.313 19.3933 114.313 21.22V27H111.453V16H114.313V17.5C115.139 16.34 116.279 15.76 117.733 15.76ZM125.334 10.92C125.854 10.92 126.281 11.08 126.614 11.4C126.947 11.7067 127.114 12.1067 127.114 12.6C127.114 13.0933 126.947 13.5 126.614 13.82C126.281 14.14 125.854 14.3 125.334 14.3C124.827 14.3 124.401 14.14 124.054 13.82C123.721 13.5 123.554 13.0933 123.554 12.6C123.554 12.12 123.721 11.72 124.054 11.4C124.401 11.08 124.827 10.92 125.334 10.92ZM123.894 27V16H126.754V27H123.894ZM134.51 27.24C132.87 27.24 131.503 26.6933 130.41 25.6C129.33 24.5067 128.79 23.14 128.79 21.5C128.79 19.86 129.33 18.4933 130.41 17.4C131.503 16.3067 132.877 15.76 134.53 15.76C135.917 15.76 137.123 16.16 138.15 16.96C139.19 17.7467 139.81 18.82 140.01 20.18H137.07C136.91 19.6067 136.597 19.1667 136.13 18.86C135.677 18.5533 135.143 18.4 134.53 18.4C133.663 18.4 132.97 18.6867 132.45 19.26C131.93 19.8333 131.677 20.58 131.69 21.5C131.677 22.42 131.93 23.1667 132.45 23.74C132.983 24.3133 133.67 24.6 134.51 24.6C135.123 24.6 135.663 24.4467 136.13 24.14C136.597 23.8333 136.91 23.3867 137.07 22.8H140.01C139.797 24.2 139.17 25.2933 138.13 26.08C137.103 26.8533 135.897 27.24 134.51 27.24ZM150.044 16H152.904L152.884 27H150.024V25.52C149.184 26.6667 148.037 27.24 146.584 27.24C145.13 27.24 143.93 26.7067 142.984 25.64C142.037 24.56 141.564 23.18 141.564 21.5C141.564 19.82 142.037 18.4467 142.984 17.38C143.944 16.3 145.137 15.76 146.564 15.76C148.03 15.76 149.19 16.3533 150.044 17.54V16ZM147.224 24.52C148.037 24.52 148.71 24.24 149.244 23.68C149.777 23.12 150.044 22.3933 150.044 21.5C150.044 20.6067 149.777 19.88 149.244 19.32C148.71 18.76 148.037 18.48 147.224 18.48C146.41 18.48 145.744 18.76 145.224 19.32C144.704 19.88 144.444 20.6067 144.444 21.5C144.444 22.3933 144.704 23.12 145.224 23.68C145.757 24.24 146.424 24.52 147.224 24.52Z" fill="white"/>
<path fill-rule="evenodd" clip-rule="evenodd" d="M9.65517 12.6656V7L8.68966 8.92641V12.6656H7.72414V9.29436H0V17H7.72414V13.6288H8.68966V15.2123L9.39497 13.6288H14V12.6656H9.65517Z" fill="white"/>
<path fill-rule="evenodd" clip-rule="evenodd" d="M1.43893 5L0 8H7.56107L9 5H1.43893Z" fill="white"/>
<path fill-rule="evenodd" clip-rule="evenodd" d="M8.45217 23.7097L10 20.6129H4.64348V17H3.6116V20.6129H1.86668L0.318853 23.7097H3.6116V24.7419H0V33H8.25508V24.7419H4.64348V23.7097H8.45217Z" fill="white"/>
<path fill-rule="evenodd" clip-rule="evenodd" d="M15.2759 25.2944V28.6656H10.4483V23L9.48276 24.9264V28.6656H9V29.6288H9.48276V31.2123L10.1881 29.6288H15.2759V33H23V25.2944H15.2759Z" fill="white"/>
<path fill-rule="evenodd" clip-rule="evenodd" d="M19.6435 21.3871V17.2581H23.2551V9H15V17.2581H18.6116V21.3871H16.8667L15.3189 24.4839H18.6116V25H19.6435V24.4839H23.4522L25 21.3871H19.6435Z" fill="white"/>
<path fill-rule="evenodd" clip-rule="evenodd" d="M24 24.1112V31L25 28.6249V22L24 24.1112Z" fill="white"/>
<path fill-rule="evenodd" clip-rule="evenodd" d="M24 8.11119V15L25 12.6249V6L24 8.11119Z" fill="white"/>
<path fill-rule="evenodd" clip-rule="evenodd" d="M17.4389 5L16 8H23.5611L25 5H17.4389Z" fill="white"/>
</svg>
