<svg width="23" height="19" viewBox="0 0 23 19" fill="none" xmlns="http://www.w3.org/2000/svg">
<path d="M23 2.248C22.1535 2.62948 21.2452 2.88819 20.2908 3.00369C21.2653 2.41024 22.0112 1.46896 22.3647 0.350785C21.4507 0.900354 20.4417 1.29941 19.3666 1.51574C18.5057 0.58175 17.2812 0 15.923 0C13.3173 0 11.2046 2.14863 11.2046 4.79713C11.2046 5.17276 11.2463 5.53964 11.3268 5.89046C7.40601 5.69019 3.92936 3.77983 1.60249 0.876963C1.19574 1.58442 0.964348 2.40875 0.964348 3.2887C0.964348 4.95353 1.79795 6.42249 3.06273 7.28191C2.28948 7.25561 1.56224 7.03929 0.925564 6.67971V6.73964C0.925564 9.06366 2.55252 11.0033 4.70978 11.4447C4.31454 11.5529 3.89775 11.6128 3.46658 11.6128C3.1619 11.6128 2.86726 11.5821 2.57837 11.5236C3.17912 13.4311 4.92107 14.8182 6.98495 14.8562C5.37092 16.1425 3.33579 16.9069 1.12535 16.9069C0.744495 16.9069 0.369354 16.8835 0 16.8411C2.08831 18.2049 4.56754 19 7.23216 19C15.9116 19 20.6559 11.6888 20.6559 5.34819L20.6401 4.727C21.5671 4.05459 22.369 3.20977 23 2.248Z" fill="white"/>
</svg>
