<svg width="36" height="33" viewBox="0 0 36 33" fill="none" xmlns="http://www.w3.org/2000/svg">
<rect opacity="0.32154" y="5.39999" width="36" height="27" rx="3" fill="#815DFF"/>
<path opacity="0.482199" d="M5.60001 11.1C5.60001 9.99544 6.49544 9.10001 7.60001 9.10001H28.4C29.5046 9.10001 30.4 9.99544 30.4 11.1V25.7C30.4 26.8046 29.5046 27.7 28.4 27.7H7.60001C6.49544 27.7 5.60001 26.8046 5.60001 25.7V11.1Z" fill="#815DFF"/>
<rect x="11" y="13.6" width="14" height="9.8" rx="1" fill="#815DFF"/>
<path opacity="0.318304" d="M31.606 3.86423H4.65831C4.3012 3.86423 4.01285 3.56446 4.01285 3.19542C4.01285 2.82605 4.3012 2.52661 4.65831 2.52661H31.606C31.9627 2.52661 32.2514 2.82605 32.2514 3.19542C32.2515 3.56446 31.9628 3.86423 31.606 3.86423Z" fill="#815DFF"/>
<path opacity="0.318304" d="M29.0767 1.33761H7.039C6.68039 1.33761 6.39082 1.03783 6.39082 0.668862C6.39082 0.299459 6.68039 0 7.039 0H29.0767C29.4349 0 29.7248 0.299459 29.7248 0.668862C29.7249 1.03783 29.435 1.33761 29.0767 1.33761Z" fill="#815DFF"/>
</svg>
