<svg width="36" height="36" viewBox="0 0 36 36" fill="none" xmlns="http://www.w3.org/2000/svg">
<path opacity="0.322824" d="M26.2423 18.0002L35.1514 9.09104C35.7174 8.52564 35.9999 7.83881 35.9999 7.03045C35.9999 6.22231 35.7166 5.53559 35.1514 4.96987L31.0303 0.848371C30.4647 0.282861 29.778 0 28.9701 0C28.1616 0 27.4751 0.282861 26.9092 0.848371L18.0002 9.75749L9.09093 0.848371C8.52564 0.282861 7.83881 0 7.03035 0C6.22252 0 5.53559 0.282861 4.96976 0.848371L0.848477 4.96987C0.283073 5.53516 0 6.22231 0 7.03045C0 7.83881 0.282755 8.52532 0.848477 9.09104L9.75749 18.0002L0.848477 26.9093C0.283073 27.4751 0 28.1616 0 28.9702C0 29.7779 0.282755 30.4648 0.848477 31.0303L4.96987 35.1515C5.53559 35.7175 6.22263 36 7.03045 36C7.83881 36 8.52532 35.7167 9.09104 35.1515L18.0003 26.2424L26.91 35.1515C27.4755 35.7175 28.1617 36 28.9709 36C29.7788 36 30.4656 35.7167 31.0312 35.1515L35.1515 31.0303C35.7175 30.4653 36 29.7779 36 28.9702C36 28.1616 35.7175 27.4751 35.1515 26.9093L26.2423 18.0002Z" fill="#815DFF"/>
<path opacity="0.469866" d="M23.9528 18.0001L30.3871 11.5658C30.7959 11.1574 30.9999 10.6614 30.9999 10.0775C30.9999 9.49389 30.7953 8.99792 30.3871 8.58935L27.4108 5.61271C27.0023 5.20429 26.5063 5 25.9228 5C25.3389 5 24.8431 5.20429 24.4344 5.61271L18.0001 12.0471L11.5657 5.61271C11.1574 5.20429 10.6614 5 10.0775 5C9.49404 5 8.99792 5.20429 8.58927 5.61271L5.61279 8.58935C5.20444 8.99762 5 9.49389 5 10.0775C5 10.6614 5.20421 11.1572 5.61279 11.5658L12.0471 18.0001L5.61279 24.4345C5.20444 24.8431 5 25.3389 5 25.9229C5 26.5063 5.20421 27.0024 5.61279 27.4108L8.58935 30.3872C8.99792 30.7959 9.49412 31 10.0775 31C10.6614 31 11.1572 30.7954 11.5658 30.3872L18.0002 23.9528L24.435 30.3872C24.8434 30.7959 25.339 31 25.9234 31C26.5069 31 27.0029 30.7954 27.4114 30.3872L30.3872 27.4108C30.7959 27.0027 31 26.5063 31 25.9229C31 25.3389 30.7959 24.8431 30.3872 24.4345L23.9528 18.0001Z" fill="#815DFF"/>
<path d="M21.6632 18.0001L25.6229 14.0405C25.8744 13.7892 26 13.4839 26 13.1246C26 12.7655 25.874 12.4603 25.6229 12.2088L23.7913 10.3771C23.5399 10.1257 23.2347 10 22.8756 10C22.5163 10 22.2112 10.1257 21.9596 10.3771L18.0001 14.3367L14.0404 10.3771C13.7892 10.1257 13.4839 10 13.1246 10C12.7656 10 12.4603 10.1257 12.2088 10.3771L10.3771 12.2088C10.1258 12.4601 10 12.7655 10 13.1246C10 13.4839 10.1257 13.789 10.3771 14.0405L14.3367 18.0001L10.3771 21.9597C10.1258 22.2112 10 22.5163 10 22.8756C10 23.2346 10.1257 23.5399 10.3771 23.7913L12.2088 25.6229C12.4603 25.8744 12.7656 26 13.1246 26C13.4839 26 13.789 25.8741 14.0405 25.6229L18.0001 21.6633L21.96 25.6229C22.2113 25.8744 22.5163 26 22.876 26C23.235 26 23.5403 25.8741 23.7916 25.6229L25.6229 23.7913C25.8744 23.5401 26 23.2346 26 22.8756C26 22.5163 25.8744 22.2112 25.6229 21.9597L21.6632 18.0001Z" fill="#815DFF"/>
</svg>
