<svg width="38" height="36" viewBox="0 0 38 36" fill="none" xmlns="http://www.w3.org/2000/svg">
<path opacity="0.316908" d="M17.4319 0.857163C17.6768 0.362574 18.181 0.0490112 18.7322 0.0490112C19.2834 0.0490112 19.7885 0.362574 20.0325 0.857163L24.6964 10.3085C24.9073 10.736 25.3162 11.0326 25.789 11.1013L36.219 12.6166C36.7661 12.6958 37.2187 13.0788 37.3892 13.6033C37.5597 14.1278 37.4175 14.7048 37.0223 15.0895L29.4758 22.4469C29.1339 22.7799 28.9779 23.2599 29.058 23.7303L30.8391 34.1191C30.9313 34.6638 30.709 35.2133 30.2613 35.5382C29.8144 35.8614 29.2236 35.9043 28.7339 35.6489L19.4046 30.7434C18.9827 30.5212 18.4776 30.5212 18.055 30.7434L8.72567 35.6481C8.23755 35.9043 7.64517 35.8623 7.19826 35.5382C6.75135 35.2141 6.5283 34.6638 6.62124 34.1191L8.40241 23.7303C8.48322 23.2599 8.32644 22.7799 7.98459 22.4469L0.438074 15.0895C0.0428875 14.704 -0.0993472 14.1278 0.0711728 13.6033C0.241693 13.0788 0.695066 12.6958 1.24218 12.6166L11.6738 11.1013C12.1458 11.0326 12.5547 10.736 12.7656 10.3077L17.4319 0.857163Z" fill="#815DFF"/>
<path opacity="0.47673" d="M17.6721 5.58749C17.8501 5.22795 18.2167 5 18.6174 5C19.0181 5 19.3853 5.22795 19.5627 5.58749L22.9531 12.4582C23.1064 12.769 23.4037 12.9846 23.7474 13.0346L31.3296 14.1361C31.7273 14.1937 32.0563 14.4721 32.1803 14.8534C32.3042 15.2347 32.2008 15.6542 31.9135 15.9338L26.4275 21.2824C26.179 21.5244 26.0656 21.8734 26.1238 22.2153L27.4186 29.7675C27.4856 30.1635 27.324 30.563 26.9986 30.7992C26.6737 31.0342 26.2442 31.0653 25.8882 30.8796L19.1062 27.3136C18.7995 27.152 18.4323 27.152 18.1251 27.3136L11.3431 30.8791C10.9882 31.0653 10.5576 31.0347 10.2327 30.7992C9.90782 30.5636 9.74567 30.1635 9.81324 29.7675L11.1081 22.2153C11.1668 21.8734 11.0528 21.5244 10.8043 21.2824L5.31833 15.9338C5.03104 15.6536 4.92765 15.2347 5.05161 14.8534C5.17557 14.4721 5.50515 14.1937 5.90288 14.1361L13.4862 13.0346C13.8293 12.9846 14.1266 12.769 14.2799 12.4576L17.6721 5.58749Z" fill="#815DFF"/>
<path d="M17.8235 11.3163C17.9193 11.1227 18.1167 11 18.3324 11C18.5482 11 18.7459 11.1227 18.8414 11.3163L20.6671 15.016C20.7496 15.1833 20.9097 15.2994 21.0947 15.3263L25.1775 15.9194C25.3916 15.9504 25.5688 16.1004 25.6355 16.3057C25.7023 16.511 25.6466 16.7369 25.4919 16.8874L22.5379 19.7674C22.4041 19.8978 22.343 20.0857 22.3744 20.2698L23.0716 24.3364C23.1076 24.5496 23.0206 24.7647 22.8454 24.8919C22.6705 25.0184 22.4392 25.0352 22.2475 24.9352L18.5956 23.015C18.4305 22.928 18.2328 22.928 18.0674 23.015L14.4155 24.9349C14.2244 25.0352 13.9925 25.0187 13.8176 24.8919C13.6427 24.765 13.5554 24.5496 13.5917 24.3364L14.289 20.2698C14.3206 20.0857 14.2592 19.8978 14.1254 19.7674L11.1714 16.8874C11.0167 16.7366 10.961 16.511 11.0278 16.3057C11.0945 16.1004 11.272 15.9504 11.4862 15.9194L15.5695 15.3263C15.7543 15.2994 15.9143 15.1833 15.9969 15.0156L17.8235 11.3163Z" fill="#815DFF"/>
</svg>
