<svg width="36" height="36" viewBox="0 0 36 36" fill="none" xmlns="http://www.w3.org/2000/svg">
<path opacity="0.319141" d="M18 36C27.9411 36 36 27.9411 36 18C36 8.05887 27.9411 0 18 0C8.05887 0 0 8.05887 0 18C0 27.9411 8.05887 36 18 36Z" fill="#815DFF"/>
<path opacity="0.474665" d="M18 31C25.1797 31 31 25.1797 31 18C31 10.8203 25.1797 5 18 5C10.8203 5 5 10.8203 5 18C5 25.1797 10.8203 31 18 31Z" fill="#815DFF"/>
<path d="M18 26C22.4183 26 26 22.4183 26 18C26 13.5817 22.4183 10 18 10C13.5817 10 10 13.5817 10 18C10 22.4183 13.5817 26 18 26Z" fill="#815DFF"/>
</svg>
