<svg width="24" height="24" viewBox="0 0 24 24" fill="none" xmlns="http://www.w3.org/2000/svg">
<g opacity="0.35">
<path fill-rule="evenodd" clip-rule="evenodd" d="M3.51076 3.51071C8.19201 -1.17047 15.8086 -1.17001 20.4894 3.51071C25.1702 8.19143 25.1702 15.8079 20.4894 20.4891C15.8082 25.1703 8.19155 25.1703 3.51076 20.4891C-1.17002 15.8079 -1.17049 8.19189 3.51076 3.51071ZM15.2418 16.2529C15.5608 16.5719 16.078 16.5719 16.3971 16.2529C16.7161 15.9338 16.7161 15.4166 16.3971 15.0976L13.3638 12.0643L16.2525 9.17558C16.5715 8.85652 16.5715 8.33933 16.2525 8.02027C15.9334 7.70122 15.4162 7.70122 15.0971 8.02027L12.2085 10.909L9.17517 7.87566C8.85612 7.5566 8.33892 7.5566 8.01987 7.87566C7.70081 8.19431 7.70081 8.71191 8.01987 9.03096L11.0532 12.0643L7.87566 15.2418C7.5566 15.5608 7.5566 16.078 7.87566 16.3971C8.19471 16.7161 8.71191 16.7161 9.03096 16.3971L12.2085 13.2196L15.2418 16.2529Z" fill="white"/>
</g>
</svg>
