<svg width="12" height="20" viewBox="0 0 12 20" fill="none" xmlns="http://www.w3.org/2000/svg">
<path d="M11.5481 0.00416134L8.66986 0C5.43624 0 3.34653 1.9319 3.34653 4.92203V7.19141H0.452578C0.202505 7.19141 0 7.37409 0 7.59943V10.8875C0 11.1128 0.202736 11.2953 0.452578 11.2953H3.34653V19.5922C3.34653 19.8175 3.54904 20 3.79911 20H7.5749C7.82497 20 8.02748 19.8173 8.02748 19.5922V11.2953H11.4112C11.6613 11.2953 11.8638 11.1128 11.8638 10.8875L11.8652 7.59943C11.8652 7.49124 11.8174 7.38762 11.7326 7.31105C11.6479 7.23448 11.5324 7.19141 11.4123 7.19141H8.02748V5.26763C8.02748 4.34298 8.27201 3.87358 9.60873 3.87358L11.5477 3.87295C11.7975 3.87295 12 3.69027 12 3.46514V0.411972C12 0.187052 11.7977 0.00457747 11.5481 0.00416134Z" fill="white"/>
</svg>
