<svg width="70" height="40" viewBox="0 0 70 40" fill="none" xmlns="http://www.w3.org/2000/svg">
<rect x="1" y="1" width="68" height="38" fill="#6D4ED8" stroke="#6D4ED8" stroke-width="2"/>
<path d="M42.6805 12.2106C42.417 11.9298 41.9782 11.9298 41.7054 12.2106C41.4418 12.4818 41.4418 12.9332 41.7054 13.2039L46.6498 18.2918H24.6826C24.3023 18.2925 24 18.6036 24 18.9949C24 19.3863 24.3023 19.7075 24.6826 19.7075H46.6498L41.7054 24.786C41.4418 25.0668 41.4418 25.5188 41.7054 25.7894C41.9782 26.0702 42.4176 26.0702 42.6805 25.7894L48.7954 19.497C49.0682 19.2257 49.0682 18.7743 48.7954 18.5037L42.6805 12.2106Z" fill="white"/>
</svg>
