<svg width="23" height="20" viewBox="0 0 23 20" fill="none" xmlns="http://www.w3.org/2000/svg">
<path fill-rule="evenodd" clip-rule="evenodd" d="M5.70592 11.5654L0.406248 9.58993C-0.132029 9.38847 -0.136706 8.62951 0.400038 8.42278L22.15 0.0429145C22.6111 -0.135187 23.0869 0.268259 22.9865 0.751873L19.0833 19.5031C18.9913 19.9458 18.4715 20.1466 18.1047 19.8803L12.7765 16.0168C12.4529 15.7822 12.0118 15.7948 11.7022 16.0467L8.74805 18.4519C8.40512 18.732 7.88846 18.576 7.75721 18.154L5.70592 11.5654ZM17.7842 4.14268L7.42662 10.5138C7.02964 10.7585 6.84273 11.2373 6.97099 11.6856L8.09087 15.6155C8.17037 15.894 8.57509 15.8654 8.61366 15.5777L8.90484 13.4225C8.95973 13.0168 9.15354 12.643 9.454 12.3637L18.002 4.42798C18.1618 4.2799 17.9703 4.02852 17.7842 4.14268Z" fill="white"/>
</svg>
